<svg width="29" height="29" viewBox="0 0 29 29" fill="none" xmlns="http://www.w3.org/2000/svg">
<path d="M17.9746 0.0106971C17.2106 0.0911307 16.4868 0.613949 16.0847 1.37807C15.5619 2.4237 11.7016 10.1855 10.9376 10.9497C10.1736 11.7138 9.16826 12.0757 8.04233 12.0757V28.1625H22.1164C22.9609 28.1625 23.6847 27.6396 24.0064 26.9157C24.0064 26.9157 28.1482 15.2126 28.1482 14.0866C28.1482 12.9605 27.2635 12.0757 26.1376 12.0757H20.1058C18.9799 12.0757 18.0953 11.0703 18.0953 10.0649C18.0953 9.05948 19.6635 3.71064 19.9852 2.66501C20.3069 1.61937 19.7841 0.493299 18.7386 0.131348C18.4572 0.0509139 18.2561 -0.0295197 17.9746 0.0106971ZM0 12.0757V28.1625H4.02117V12.0757H0Z" fill="#F5F5F5"/>
</svg>
