<svg width="40" height="30" viewBox="0 0 40 30" fill="none" xmlns="http://www.w3.org/2000/svg">
<path d="M20.1606 0.457031C7.79086 0.457031 0.457031 15.1247 0.457031 15.1247C0.457031 15.1247 7.79086 29.7924 20.1606 29.7924C32.237 29.7924 39.5708 15.1247 39.5708 15.1247C39.5708 15.1247 32.237 0.457031 20.1606 0.457031ZM20.0139 5.34625C25.4409 5.34625 29.7923 9.74655 29.7923 15.1247C29.7923 20.5517 25.4409 24.9031 20.0139 24.9031C14.6358 24.9031 10.2355 20.5517 10.2355 15.1247C10.2355 9.74655 14.6358 5.34625 20.0139 5.34625ZM20.0139 10.2355C17.3248 10.2355 15.1247 12.4356 15.1247 15.1247C15.1247 17.8138 17.3248 20.0139 20.0139 20.0139C22.703 20.0139 24.9031 17.8138 24.9031 15.1247C24.9031 14.6358 24.7076 14.1957 24.6098 13.7557C24.2186 14.538 23.4364 15.1247 22.4585 15.1247C21.0895 15.1247 20.0139 14.0491 20.0139 12.6801C20.0139 11.7022 20.6006 10.92 21.3829 10.5288C20.9429 10.3821 20.5028 10.2355 20.0139 10.2355Z" fill="#F5F5F5"/>
</svg>
