<svg width="24" height="26" viewBox="0 0 24 26" fill="none" xmlns="http://www.w3.org/2000/svg">
<g clip-path="url(#clip0_183_200)">
<path d="M23.6659 13.2424C23.6659 12.1772 23.5853 11.3998 23.411 10.5938H12.0742V15.4016H18.7286C18.5945 16.5964 17.87 18.3957 16.2601 19.6048L16.2375 19.7658L19.822 22.7452L20.0703 22.7718C22.351 20.5118 23.6659 17.1865 23.6659 13.2424Z" fill="#4285F4"/>
<path d="M12.0758 25.9106C15.3359 25.9106 18.0728 24.759 20.0718 22.7726L16.2616 19.6056C15.242 20.3686 13.8735 20.9012 12.0758 20.9012C8.88271 20.9012 6.17265 18.6412 5.20659 15.5176L5.06499 15.5305L1.3378 18.6254L1.28906 18.7708C3.27465 23.0028 7.3532 25.9106 12.0758 25.9106Z" fill="#34A853"/>
<path d="M5.20546 15.517C4.95055 14.7109 4.80303 13.8472 4.80303 12.9548C4.80303 12.0622 4.95055 11.1986 5.19204 10.3925L5.18529 10.2208L1.4114 7.07617L1.28793 7.13919C0.469574 8.89538 0 10.8675 0 12.9548C0 15.042 0.469574 17.014 1.28793 18.7702L5.20546 15.517Z" fill="#FBBC05"/>
<path d="M12.0758 5.00937C14.3431 5.00937 15.8725 6.06018 16.7446 6.93833L20.1523 3.36839C18.0594 1.28115 15.3359 0 12.0758 0C7.3532 0 3.27465 2.90773 1.28906 7.13978L5.19318 10.3931C6.17265 7.26938 8.88271 5.00937 12.0758 5.00937Z" fill="#EB4335"/>
</g>
<defs>
<clipPath id="clip0_183_200">
<rect width="23.68" height="26" fill="white"/>
</clipPath>
</defs>
</svg>
