<svg width="39" height="31" viewBox="0 0 39 31" fill="none" xmlns="http://www.w3.org/2000/svg">
<path d="M25.833 27.2268L21.9688 23.3603C20.4745 23.8945 18.8592 23.9935 17.3108 23.6456C15.7624 23.2977 14.3447 22.5172 13.2225 21.3951C12.1004 20.2729 11.3199 18.8552 10.972 17.3068C10.6241 15.7584 10.7231 14.1431 11.2573 12.6488L6.32537 7.71682C2.24572 11.344 0 15.4667 0 15.4667C0 15.4667 7.18248 28.6346 19.1533 28.6346C21.4527 28.6266 23.726 28.1475 25.833 27.2268ZM12.4736 3.7066C14.5806 2.78586 16.8539 2.30675 19.1533 2.29883C31.1241 2.29883 38.3066 15.4667 38.3066 15.4667C38.3066 15.4667 36.0585 19.5871 31.9836 23.219L27.0468 18.2822C27.5811 16.7879 27.68 15.1726 27.3322 13.6242C26.9843 12.0758 26.2038 10.6581 25.0817 9.53595C23.9595 8.41379 22.5418 7.63335 20.9934 7.28546C19.445 6.93756 17.8297 7.0365 16.3354 7.57077L12.4736 3.7066Z" fill="#928F8F"/>
<path d="M13.119 14.365C12.9873 15.2851 13.0717 16.2232 13.3655 17.105C13.6593 17.9868 14.1544 18.7881 14.8117 19.4454C15.4689 20.1026 16.2702 20.5977 17.152 20.8915C18.0338 21.1853 18.972 21.2697 19.8921 21.1381L13.119 14.365ZM24.9701 16.06L18.197 9.28456C19.1171 9.15286 20.0552 9.23726 20.937 9.53107C21.8189 9.82488 22.6201 10.32 23.2774 10.9773C23.9346 11.6345 24.4298 12.4358 24.7236 13.3176C25.0174 14.1994 25.1018 15.1375 24.9701 16.0576V16.06ZM32.562 30.425L3.83203 1.69507L5.5271 0L34.257 28.7299L32.562 30.425Z" fill="#928F8F"/>
</svg>
