<svg width="89" height="89" viewBox="0 0 89 89" fill="none" xmlns="http://www.w3.org/2000/svg">
<path d="M66.3839 44.514L33.2425 66.611V22.417L66.3839 44.514ZM44.2897 0.328125C19.9177 0.328125 0.109375 20.139 0.109375 44.514C0.109375 68.8891 19.9177 88.7 44.2897 88.7C68.6616 88.7 88.47 68.8891 88.47 44.514C88.47 20.139 68.6616 0.328125 44.2897 0.328125ZM44.2897 5.83596C65.6764 5.83596 82.9628 23.1246 82.9628 44.514C82.9628 65.9035 65.6764 83.1921 44.2897 83.1921C22.9029 83.1921 5.61651 65.9035 5.61651 44.514C5.61651 23.1246 22.9029 5.83596 44.2897 5.83596Z" fill="black" fill-opacity="0.5"/>
</svg>
